<?xml version="1.0" encoding="UTF-8"?><svg id="a" xmlns="http://www.w3.org/2000/svg" viewBox="0 0 150 150"><defs><style>.b{fill:none;}</style></defs><path class="b" d="M0,0H150V150H0V0Z"/><path d="M85.19,74.51h15.75c-.18-13.35-11.14-24.03-24.5-23.86-13.35,.18-24.03,11.14-23.86,24.5,.18,13.23,10.95,23.86,24.18,23.86h61.6c-1.22,3.09-2.67,6.09-4.32,8.97h-57.27c-18.28,0-33.09-14.82-33.09-33.09s14.82-33.09,33.09-33.09,33.09,14.82,33.09,33.09h15.8c.03-27-21.84-48.92-48.84-48.95-27-.03-48.92,21.84-48.95,48.84-.03,27,21.84,48.92,48.84,48.95h44.62c-27.21,24.85-69.41,22.94-94.26-4.27C2.22,92.25,4.13,50.05,31.34,25.2,58.55,.35,100.75,2.26,125.6,29.47c11.23,12.29,17.46,28.34,17.46,44.99,0,2.95-.2,5.89-.59,8.81H76.76c-4.64-.37-8.11-4.43-7.74-9.08,.33-4.13,3.61-7.41,7.74-7.74,4.52,0,8.23,3.55,8.43,8.06Z"/></svg>